<?xml version="1.0" encoding="utf-8" standalone="no"?>
<!DOCTYPE svg PUBLIC "-//W3C//DTD SVG 1.1//EN"
  "http://www.w3.org/Graphics/SVG/1.1/DTD/svg11.dtd">
<svg xmlns:xlink="http://www.w3.org/1999/xlink" width="181.8pt" height="125.28pt" viewBox="0 0 181.8 125.28" xmlns="http://www.w3.org/2000/svg" version="1.1">
 <metadata>
  <rdf:RDF xmlns:dc="http://purl.org/dc/elements/1.1/" xmlns:cc="http://creativecommons.org/ns#" xmlns:rdf="http://www.w3.org/1999/02/22-rdf-syntax-ns#">
   <cc:Work>
    <dc:type rdf:resource="http://purl.org/dc/dcmitype/StillImage"/>
    <dc:date>2024-09-03T10:36:12.959918</dc:date>
    <dc:format>image/svg+xml</dc:format>
    <dc:creator>
     <cc:Agent>
      <dc:title>Matplotlib v3.8.3, https://matplotlib.org/</dc:title>
     </cc:Agent>
    </dc:creator>
   </cc:Work>
  </rdf:RDF>
 </metadata>
 <defs>
  <style type="text/css">*{stroke-linejoin: round; stroke-linecap: butt}</style>
 </defs>
 <g id="figure_1">
  <g id="patch_1">
   <path d="M 0 125.28 
L 181.8 125.28 
L 181.8 0 
L 0 0 
z
" style="fill: #ffffff"/>
  </g>
  <g id="axes_1">
   <g id="line2d_1">
    <path d="M 14.809091 13.102374 
L 16.346281 15.749909 
L 17.883471 14.325881 
L 19.420661 11.469921 
L 20.957851 12.044131 
L 22.495041 17.801609 
L 24.032231 13.557567 
L 25.569421 15.666156 
L 27.106612 15.368521 
L 28.643802 14.098864 
L 30.180992 14.469832 
L 31.718182 11.540486 
L 33.255372 12.816739 
L 34.792562 13.986146 
L 36.329752 13.146334 
L 37.866942 13.219881 
L 39.404132 10.63717 
L 40.941322 14.056992 
L 42.478512 12.836334 
L 44.015702 15.157273 
L 45.552893 18.60166 
L 47.090083 11.771467 
L 48.627273 11.230822 
L 50.164463 14.509699 
L 51.701653 8.116364 
L 53.238843 15.854118 
L 54.776033 12.650231 
L 56.313223 13.089792 
L 57.850413 9.445849 
L 59.387603 9.551059 
L 60.924793 12.289411 
L 62.461983 11.815041 
L 63.999174 14.473166 
L 65.536364 16.779435 
L 67.073554 13.381926 
L 68.610744 12.36098 
L 70.147934 10.156272 
L 71.685124 10.271796 
L 73.222314 13.671607 
L 74.759504 13.570652 
L 76.296694 15.222188 
L 77.833884 16.097675 
L 79.371074 16.803911 
L 80.908264 9.252739 
L 82.445455 14.534733 
L 83.982645 14.517268 
L 85.519835 16.365957 
L 87.057025 12.25833 
L 88.594215 17.427494 
L 90.131405 14.653194 
L 91.668595 16.254051 
L 93.205785 13.741567 
L 94.742975 15.805012 
L 96.280165 17.396011 
L 97.817355 15.171677 
L 99.354545 14.410571 
L 100.891736 15.36877 
L 102.428926 15.077133 
L 103.966116 17.246762 
L 105.503306 16.885471 
L 107.040496 17.744509 
L 108.577686 17.299494 
L 110.114876 18.461978 
L 111.652066 20.587935 
L 113.189256 16.808377 
L 114.726446 18.232903 
L 116.263636 21.016894 
L 117.800826 16.836045 
L 119.338017 19.912409 
L 120.875207 18.102615 
L 122.412397 16.880599 
L 123.949587 18.332047 
L 125.486777 16.402678 
L 127.023967 21.563621 
L 128.561157 18.309745 
L 130.098347 20.760988 
L 131.635537 21.316637 
L 133.172727 20.863507 
L 134.709917 20.454787 
L 136.247107 19.827896 
L 137.784298 22.524148 
L 139.321488 18.320729 
L 140.858678 19.351876 
L 142.395868 23.658461 
L 143.933058 17.418687 
L 145.470248 16.655224 
L 147.007438 18.239855 
L 148.544628 21.159518 
L 150.081818 23.088196 
L 151.619008 18.683912 
L 153.156198 21.780049 
L 154.693388 18.402079 
L 156.230579 20.54741 
L 157.767769 18.945261 
L 159.304959 20.243486 
L 160.842149 19.496563 
L 162.379339 20.932353 
L 163.916529 17.176546 
L 165.453719 20.609778 
L 166.990909 19.978207 
" clip-path="url(#p6b95f784cb)" style="fill: none; stroke: #00bfbf; stroke-width: 1.5; stroke-linecap: square"/>
   </g>
   <g id="line2d_2">
    <path d="M 7.2 26.443636 
L 174.6 26.443636 
" clip-path="url(#p6b95f784cb)" style="fill: none; stroke: #000000; stroke-linecap: square"/>
   </g>
  </g>
  <g id="axes_2">
   <g id="line2d_3">
    <path d="M 14.809091 39.700547 
L 16.346281 46.357368 
L 17.883471 45.933993 
L 19.420661 40.896576 
L 20.957851 45.32225 
L 22.495041 38.478699 
L 24.032231 43.448953 
L 25.569421 44.111067 
L 27.106612 38.356364 
L 28.643802 39.339546 
L 30.180992 38.582482 
L 31.718182 40.768202 
L 33.255372 44.728222 
L 34.792562 38.96809 
L 36.329752 43.889315 
L 37.866942 41.860119 
L 39.404132 41.854222 
L 40.941322 44.559658 
L 42.478512 43.266947 
L 44.015702 42.987993 
L 45.552893 44.563904 
L 47.090083 48.15431 
L 48.627273 45.575608 
L 50.164463 43.797345 
L 51.701653 48.577545 
L 53.238843 47.836886 
L 54.776033 48.874717 
L 56.313223 44.374265 
L 57.850413 47.30154 
L 59.387603 48.247351 
L 60.924793 51.131793 
L 62.461983 48.641615 
L 63.999174 51.545861 
L 65.536364 50.288057 
L 67.073554 51.948319 
L 68.610744 49.312101 
L 70.147934 49.672092 
L 71.685124 51.463253 
L 73.222314 50.223924 
L 74.759504 53.442671 
L 76.296694 54.271682 
L 77.833884 50.049004 
L 79.371074 50.521772 
L 80.908264 49.359192 
L 82.445455 45.404431 
L 83.982645 48.264655 
L 85.519835 51.989422 
L 87.057025 47.32201 
L 88.594215 52.221763 
L 90.131405 50.025862 
L 91.668595 48.798433 
L 93.205785 44.566661 
L 94.742975 49.437341 
L 96.280165 49.186955 
L 97.817355 47.189091 
L 99.354545 47.969921 
L 100.891736 43.688613 
L 102.428926 48.009003 
L 103.966116 47.740723 
L 105.503306 45.816603 
L 107.040496 45.567586 
L 108.577686 39.992061 
L 110.114876 41.771673 
L 111.652066 43.32737 
L 113.189256 45.886578 
L 114.726446 41.207278 
L 116.263636 44.984166 
L 117.800826 46.00574 
L 119.338017 40.021312 
L 120.875207 41.829931 
L 122.412397 40.510222 
L 123.949587 41.827935 
L 125.486777 40.737213 
L 127.023967 44.089213 
L 128.561157 45.064523 
L 130.098347 41.566146 
L 131.635537 44.989427 
L 133.172727 45.010373 
L 134.709917 44.806198 
L 136.247107 44.118295 
L 137.784298 45.273305 
L 139.321488 47.848251 
L 140.858678 46.67431 
L 142.395868 50.485674 
L 143.933058 44.784914 
L 145.470248 50.006552 
L 147.007438 49.370569 
L 148.544628 47.315611 
L 150.081818 49.443887 
L 151.619008 44.950117 
L 153.156198 51.448392 
L 154.693388 48.474518 
L 156.230579 49.490939 
L 157.767769 52.249418 
L 159.304959 48.913135 
L 160.842149 50.675201 
L 162.379339 48.878612 
L 163.916529 48.96124 
L 165.453719 46.233843 
L 166.990909 48.123583 
" clip-path="url(#p0a01cb1546)" style="fill: none; stroke: #00bfbf; stroke-width: 1.5; stroke-linecap: square"/>
   </g>
   <g id="line2d_4">
    <path d="M 7.2 56.683636 
L 174.6 56.683636 
" clip-path="url(#p0a01cb1546)" style="fill: none; stroke: #000000; stroke-linecap: square"/>
   </g>
  </g>
  <g id="axes_3">
   <g id="line2d_5">
    <path d="M 14.809091 73.998145 
L 16.346281 73.813252 
L 17.883471 71.285182 
L 19.420661 72.611913 
L 20.957851 73.186855 
L 22.495041 78.529198 
L 24.032231 75.97525 
L 25.569421 78.264904 
L 27.106612 76.988651 
L 28.643802 78.600734 
L 30.180992 77.295476 
L 31.718182 79.238695 
L 33.255372 78.876391 
L 34.792562 81.958824 
L 36.329752 83.287307 
L 37.866942 82.355038 
L 39.404132 81.548321 
L 40.941322 80.567029 
L 42.478512 76.34572 
L 44.015702 80.650655 
L 45.552893 81.947096 
L 47.090083 79.977754 
L 48.627273 79.441311 
L 50.164463 76.655696 
L 51.701653 80.014582 
L 53.238843 75.873724 
L 54.776033 74.922945 
L 56.313223 74.095394 
L 57.850413 75.259626 
L 59.387603 74.094259 
L 60.924793 76.288782 
L 62.461983 74.256539 
L 63.999174 74.426554 
L 65.536364 72.670568 
L 67.073554 76.321795 
L 68.610744 72.833163 
L 70.147934 72.002919 
L 71.685124 80.139301 
L 73.222314 75.765539 
L 74.759504 76.079887 
L 76.296694 79.636545 
L 77.833884 79.930507 
L 79.371074 80.104044 
L 80.908264 81.068606 
L 82.445455 81.589497 
L 83.982645 84.777762 
L 85.519835 79.10362 
L 87.057025 79.280258 
L 88.594215 83.064613 
L 90.131405 84.114277 
L 91.668595 79.536138 
L 93.205785 81.224684 
L 94.742975 79.041206 
L 96.280165 79.224051 
L 97.817355 76.304992 
L 99.354545 75.461685 
L 100.891736 77.590923 
L 102.428926 78.190922 
L 103.966116 77.924213 
L 105.503306 72.805054 
L 107.040496 76.102862 
L 108.577686 74.405691 
L 110.114876 74.472825 
L 111.652066 73.394936 
L 113.189256 77.519249 
L 114.726446 73.485344 
L 116.263636 73.307113 
L 117.800826 74.848916 
L 119.338017 76.411241 
L 120.875207 76.363937 
L 122.412397 76.571009 
L 123.949587 83.982505 
L 125.486777 74.971023 
L 127.023967 78.949772 
L 128.561157 81.746214 
L 130.098347 81.715174 
L 131.635537 80.247965 
L 133.172727 81.722838 
L 134.709917 85.737517 
L 136.247107 77.116741 
L 137.784298 81.339738 
L 139.321488 78.553463 
L 140.858678 81.530945 
L 142.395868 76.223372 
L 143.933058 78.049134 
L 145.470248 76.561435 
L 147.007438 79.156049 
L 148.544628 73.654557 
L 150.081818 73.96469 
L 151.619008 72.004497 
L 153.156198 75.426311 
L 154.693388 74.672021 
L 156.230579 68.596364 
L 157.767769 75.439131 
L 159.304959 73.555109 
L 160.842149 71.114664 
L 162.379339 73.629308 
L 163.916529 73.126035 
L 165.453719 75.791168 
L 166.990909 74.92044 
" clip-path="url(#pe521fbc92d)" style="fill: none; stroke: #00bfbf; stroke-width: 1.5; stroke-linecap: square"/>
   </g>
   <g id="line2d_6">
    <path d="M 7.2 86.923636 
L 174.6 86.923636 
" clip-path="url(#pe521fbc92d)" style="fill: none; stroke: #000000; stroke-linecap: square"/>
   </g>
  </g>
  <g id="axes_4">
   <g id="line2d_7">
    <path d="M 14.809091 109.660482 
L 16.346281 104.266118 
L 17.883471 109.548635 
L 19.420661 111.828275 
L 20.957851 109.432243 
L 22.495041 112.282899 
L 24.032231 114.141323 
L 25.569421 113.635477 
L 27.106612 108.098739 
L 28.643802 108.881755 
L 30.180992 107.494596 
L 31.718182 103.360363 
L 33.255372 107.087584 
L 34.792562 105.087031 
L 36.329752 103.498401 
L 37.866942 101.975977 
L 39.404132 102.265795 
L 40.941322 103.213465 
L 42.478512 103.466255 
L 44.015702 104.64231 
L 45.552893 107.31756 
L 47.090083 108.902289 
L 48.627273 107.763341 
L 50.164463 111.601668 
L 51.701653 113.128746 
L 53.238843 111.776589 
L 54.776033 111.598138 
L 56.313223 105.856435 
L 57.850413 111.968758 
L 59.387603 107.244743 
L 60.924793 106.474859 
L 62.461983 109.533098 
L 63.999174 103.6974 
L 65.536364 106.902305 
L 67.073554 109.235365 
L 68.610744 101.087579 
L 70.147934 106.144868 
L 71.685124 101.206688 
L 73.222314 104.287204 
L 74.759504 99.803436 
L 76.296694 102.28772 
L 77.833884 107.071454 
L 79.371074 108.980963 
L 80.908264 111.488699 
L 82.445455 110.850378 
L 83.982645 111.319512 
L 85.519835 111.982366 
L 87.057025 110.858127 
L 88.594215 109.547839 
L 90.131405 109.338854 
L 91.668595 110.831389 
L 93.205785 111.101876 
L 94.742975 103.349345 
L 96.280165 106.680984 
L 97.817355 105.392024 
L 99.354545 104.14218 
L 100.891736 106.542335 
L 102.428926 103.216587 
L 103.966116 103.419817 
L 105.503306 101.510205 
L 107.040496 102.271389 
L 108.577686 105.050225 
L 110.114876 104.280194 
L 111.652066 106.998513 
L 113.189256 109.0794 
L 114.726446 109.732671 
L 116.263636 111.278035 
L 117.800826 112.108565 
L 119.338017 111.771949 
L 120.875207 113.276734 
L 122.412397 109.246322 
L 123.949587 111.034336 
L 125.486777 105.55075 
L 127.023967 106.661331 
L 128.561157 104.658983 
L 130.098347 102.499667 
L 131.635537 101.290887 
L 133.172727 105.824314 
L 134.709917 102.611566 
L 136.247107 100.443108 
L 137.784298 107.011031 
L 139.321488 103.27696 
L 140.858678 110.544761 
L 142.395868 109.098967 
L 143.933058 108.037044 
L 145.470248 113.12359 
L 147.007438 112.575806 
L 148.544628 114.332782 
L 150.081818 107.482485 
L 151.619008 110.705765 
L 153.156198 109.229583 
L 154.693388 110.121598 
L 156.230579 109.244779 
L 157.767769 110.787536 
L 159.304959 106.396712 
L 160.842149 106.180387 
L 162.379339 101.408743 
L 163.916529 99.983907 
L 165.453719 98.836364 
L 166.990909 100.239847 
" clip-path="url(#pc9fb92c91c)" style="fill: none; stroke: #00bfbf; stroke-width: 1.5; stroke-linecap: square"/>
   </g>
   <g id="line2d_8">
    <path d="M 7.2 117.163636 
L 174.6 117.163636 
" clip-path="url(#pc9fb92c91c)" style="fill: none; stroke: #000000; stroke-linecap: square"/>
   </g>
  </g>
 </g>
 <defs>
  <clipPath id="p6b95f784cb">
   <rect x="7.2" y="7.2" width="167.4" height="20.16"/>
  </clipPath>
  <clipPath id="p0a01cb1546">
   <rect x="7.2" y="37.44" width="167.4" height="20.16"/>
  </clipPath>
  <clipPath id="pe521fbc92d">
   <rect x="7.2" y="67.68" width="167.4" height="20.16"/>
  </clipPath>
  <clipPath id="pc9fb92c91c">
   <rect x="7.2" y="97.92" width="167.4" height="20.16"/>
  </clipPath>
 </defs>
</svg>
